<?xml version="1.0" encoding="iso-8859-1"?>
<!-- Generator: Adobe Illustrator 17.1.0, SVG Export Plug-In . SVG Version: 6.00 Build 0)  -->
<!DOCTYPE svg PUBLIC "-//W3C//DTD SVG 1.1//EN" "http://www.w3.org/Graphics/SVG/1.1/DTD/svg11.dtd">
<svg version="1.1" id="Capa_1" xmlns="http://www.w3.org/2000/svg" xmlns:xlink="http://www.w3.org/1999/xlink" x="0px" y="0px"
	 viewBox="0 0 337.796 337.796" style="enable-background:new 0 0 337.796 337.796;" xml:space="preserve">
<g style='fill:none; stroke : white;stroke-width:9px;'>
	<path d="M307.347,67.751l-8.622-32.907c-1.865-7.115-9.088-12.689-16.443-12.689h-35.208l-2.481-9.466
		C242.729,5.573,235.507,0,228.151,0H109.645c-7.356,0-14.578,5.573-16.442,12.688l-2.48,9.466H55.514
		c-7.355,0-14.578,5.574-16.443,12.689l-8.622,32.907c-0.969,3.697-0.311,7.392,1.808,10.136c2.117,2.744,5.524,4.318,9.346,4.318
		h7.889l4.466,47.303c-4.371,4.569-7.064,10.756-7.064,17.563v84.836c0,11.823,8.109,21.788,19.057,24.625l5.74,60.8
		c1.065,11.283,11.152,20.464,22.487,20.464h149.439c11.335,0,21.422-9.181,22.487-20.464l5.74-60.8
		c10.948-2.837,19.057-12.802,19.057-24.625v-84.836c0-6.808-2.694-12.994-7.064-17.563l4.466-47.303h7.889
		c3.821,0,7.229-1.574,9.346-4.318C307.658,75.143,308.316,71.448,307.347,67.751z M260.572,225.83c0,4.917-4.023,8.939-8.939,8.939
		H86.163c-4.917,0-8.939-4.023-8.939-8.939v-72.681c0-4.917,4.023-8.939,8.939-8.939h165.47c4.917,0,8.939,4.023,8.939,8.939V225.83
		z"/>
	<path d="M207.154,171.568h-76.512c-8.284,0-15,6.716-15,15s6.716,15,15,15h76.512c8.284,0,15-6.716,15-15
		S215.438,171.568,207.154,171.568z"/>
</g>

</svg>
